<?xml version="1.0" encoding="UTF-8" standalone="no"?>
<!-- Created with Inkscape (http://www.inkscape.org/) -->

<svg
   xmlns:dc="http://purl.org/dc/elements/1.1/"
   xmlns:cc="http://creativecommons.org/ns#"
   xmlns:rdf="http://www.w3.org/1999/02/22-rdf-syntax-ns#"
   xmlns:svg="http://www.w3.org/2000/svg"
   xmlns="http://www.w3.org/2000/svg"
   xmlns:xlink="http://www.w3.org/1999/xlink"
   xmlns:sodipodi="http://sodipodi.sourceforge.net/DTD/sodipodi-0.dtd"
   xmlns:inkscape="http://www.inkscape.org/namespaces/inkscape"
   width="632.00854"
   height="475.80975"
   id="svg2"
   version="1.1"
   inkscape:version="0.47pre4 r22446"
   sodipodi:docname="rubrick.svg">
  <sodipodi:namedview
     id="base"
     pagecolor="#ffffff"
     bordercolor="#666666"
     borderopacity="1.0"
     inkscape:pageopacity="0.0"
     inkscape:pageshadow="2"
     inkscape:zoom="0.7292831"
     inkscape:cx="316.00426"
     inkscape:cy="237.90488"
     inkscape:document-units="px"
     inkscape:current-layer="layer1"
     showgrid="false"
     inkscape:window-width="791"
     inkscape:window-height="602"
     inkscape:window-x="304"
     inkscape:window-y="67"
     inkscape:window-maximized="0"
     showguides="true"
     inkscape:guide-bbox="true" />
  <defs
     id="defs4">
    <inkscape:perspective
       id="perspective10"
       inkscape:persp3d-origin="372.04724 : 350.78739 : 1"
       inkscape:vp_z="744.09448 : 526.18109 : 1"
       inkscape:vp_y="0 : 1000 : 0"
       inkscape:vp_x="0 : 526.18109 : 1"
       sodipodi:type="inkscape:persp3d" />
    <linearGradient
       inkscape:collect="always"
       xlink:href="#linearGradient3241"
       id="linearGradient3426"
       gradientUnits="userSpaceOnUse"
       gradientTransform="matrix(0.964958,0,0,0.957716,13.3974,4.03277)"
       x1="52.442154"
       y1="-23.972216"
       x2="161.03645"
       y2="165.54085" />
    <linearGradient
       inkscape:collect="always"
       xlink:href="#linearGradient3229"
       id="linearGradient3424"
       gradientUnits="userSpaceOnUse"
       gradientTransform="matrix(1.47514,0,0,0.952671,-61.2142,7.10067)"
       x1="52.097725"
       y1="-99.900627"
       x2="212.58461"
       y2="148.60075" />
    <linearGradient
       inkscape:collect="always"
       xlink:href="#linearGradient3229"
       id="linearGradient3422"
       gradientUnits="userSpaceOnUse"
       gradientTransform="matrix(1.30113,0,0,0.935464,-26.7072,7.66545)"
       x1="32.544334"
       y1="-99.715096"
       x2="214.4944"
       y2="148.62189" />
    <linearGradient
       inkscape:collect="always"
       xlink:href="#linearGradient3204"
       id="linearGradient3420"
       gradientUnits="userSpaceOnUse"
       gradientTransform="matrix(-0.957716,0,0,-0.957716,262.005,218.851)"
       x1="-18.128475"
       y1="-8.3689461"
       x2="85.765076"
       y2="95.524605" />
    <linearGradient
       inkscape:collect="always"
       xlink:href="#linearGradient3204"
       id="linearGradient3418"
       gradientUnits="userSpaceOnUse"
       gradientTransform="matrix(0.957716,0,0,0.957716,13.2458,6.18973)"
       x1="10.50732"
       y1="20.26685"
       x2="58.368561"
       y2="68.12809" />
    <linearGradient
       inkscape:collect="always"
       xlink:href="#linearGradient2405"
       id="linearGradient3416"
       gradientUnits="userSpaceOnUse"
       gradientTransform="matrix(1.27314,0,0,0.971489,-25.6904,2.69254)"
       x1="112.53783"
       y1="215.65552"
       x2="126.34015"
       y2="215.65552" />
    <linearGradient
       inkscape:collect="always"
       xlink:href="#linearGradient2415"
       id="linearGradient3414"
       gradientUnits="userSpaceOnUse"
       gradientTransform="matrix(1.68399,0,0,1.1422,-65.0306,-39.4015)"
       x1="117.78245"
       y1="248.67055"
       x2="117.78245"
       y2="230.61212" />
    <linearGradient
       inkscape:collect="always"
       xlink:href="#linearGradient2415"
       id="linearGradient3376"
       gradientUnits="userSpaceOnUse"
       gradientTransform="matrix(1.68399,0,0,1.1422,-65.0306,-39.4015)"
       x1="117.78245"
       y1="248.67055"
       x2="117.78245"
       y2="230.61212" />
    <linearGradient
       inkscape:collect="always"
       xlink:href="#linearGradient2405"
       id="linearGradient3372"
       gradientUnits="userSpaceOnUse"
       gradientTransform="matrix(1.27314,0,0,0.971489,-25.6904,2.69254)"
       x1="112.53783"
       y1="215.65552"
       x2="126.34015"
       y2="215.65552" />
    <linearGradient
       inkscape:collect="always"
       xlink:href="#linearGradient3204"
       id="linearGradient3368"
       gradientUnits="userSpaceOnUse"
       gradientTransform="matrix(0.957716,0,0,0.957716,13.2458,6.18973)"
       x1="10.50732"
       y1="20.26685"
       x2="58.368561"
       y2="68.12809" />
    <linearGradient
       inkscape:collect="always"
       xlink:href="#linearGradient3204"
       id="linearGradient3365"
       gradientUnits="userSpaceOnUse"
       gradientTransform="matrix(-0.957716,0,0,-0.957716,262.005,218.851)"
       x1="-18.128475"
       y1="-8.3689461"
       x2="85.765076"
       y2="95.524605" />
    <linearGradient
       inkscape:collect="always"
       xlink:href="#linearGradient3229"
       id="linearGradient3361"
       gradientUnits="userSpaceOnUse"
       gradientTransform="matrix(1.30113,0,0,0.935464,-26.7072,7.66545)"
       x1="32.544334"
       y1="-99.715096"
       x2="214.4944"
       y2="148.62189" />
    <linearGradient
       inkscape:collect="always"
       xlink:href="#linearGradient3229"
       id="linearGradient3358"
       gradientUnits="userSpaceOnUse"
       gradientTransform="matrix(1.47514,0,0,0.952671,-61.2142,7.10067)"
       x1="52.097725"
       y1="-99.900627"
       x2="212.58461"
       y2="148.60075" />
    <linearGradient
       inkscape:collect="always"
       xlink:href="#linearGradient3241"
       id="linearGradient3355"
       gradientUnits="userSpaceOnUse"
       gradientTransform="matrix(0.964958,0,0,0.957716,13.3974,4.03277)"
       x1="52.442154"
       y1="-23.972216"
       x2="161.03645"
       y2="165.54085" />
    <inkscape:perspective
       sodipodi:type="inkscape:persp3d"
       inkscape:vp_x="0 : 526.18109 : 1"
       inkscape:vp_y="0 : 1000 : 0"
       inkscape:vp_z="744.09448 : 526.18109 : 1"
       inkscape:persp3d-origin="372.04724 : 350.78739 : 1"
       id="perspective10-2" />
    <linearGradient
       inkscape:collect="always"
       id="linearGradient2405">
      <stop
         style="stop-color: rgb(255, 255, 255); stop-opacity: 1;"
         offset="0"
         id="stop2407" />
      <stop
         style="stop-color: rgb(255, 255, 255); stop-opacity: 0;"
         offset="1"
         id="stop2409" />
    </linearGradient>
    <linearGradient
       inkscape:collect="always"
       id="linearGradient2415">
      <stop
         style="stop-color: rgb(255, 255, 255); stop-opacity: 1;"
         offset="0"
         id="stop2417" />
      <stop
         style="stop-color: rgb(255, 255, 255); stop-opacity: 0;"
         offset="1"
         id="stop2419" />
    </linearGradient>
    <linearGradient
       inkscape:collect="always"
       id="linearGradient3204">
      <stop
         style="stop-color: rgb(255, 255, 255); stop-opacity: 1;"
         offset="0"
         id="stop3206" />
      <stop
         style="stop-color: rgb(255, 255, 255); stop-opacity: 0;"
         offset="1"
         id="stop3208" />
    </linearGradient>
    <linearGradient
       inkscape:collect="always"
       id="linearGradient3229">
      <stop
         style="stop-color: rgb(255, 255, 255); stop-opacity: 1;"
         offset="0"
         id="stop3231" />
      <stop
         style="stop-color: rgb(255, 255, 255); stop-opacity: 0;"
         offset="1"
         id="stop3233" />
    </linearGradient>
    <linearGradient
       inkscape:collect="always"
       id="linearGradient3241">
      <stop
         style="stop-color: rgb(255, 255, 255); stop-opacity: 1;"
         offset="0"
         id="stop3243" />
      <stop
         style="stop-color: rgb(255, 255, 255); stop-opacity: 0;"
         offset="1"
         id="stop3245" />
    </linearGradient>
    <inkscape:perspective
       sodipodi:type="inkscape:persp3d"
       inkscape:vp_x="0 : 526.18109 : 1"
       inkscape:vp_y="0 : 1000 : 0"
       inkscape:vp_z="744.09448 : 526.18109 : 1"
       inkscape:persp3d-origin="372.04724 : 350.78739 : 1"
       id="perspective6531" />
    <filter
       id="filter3212"
       inkscape:label="Pencil"
       x="0"
       y="0"
       width="1"
       height="1"
       inkscape:menu="Image effects"
       inkscape:menu-tooltip="Detect color edges and retrace them in grayscale"
       color-interpolation-filters="sRGB">
      <feConvolveMatrix
         id="feConvolveMatrix3214"
         bias="0"
         result="result0"
         preserveAlpha="true"
         targetY="1"
         targetX="1"
         divisor="1"
         in="SourceGraphic"
         kernelMatrix="1 1 1 1 -8 1 1 1 1"
         order="3 3" />
      <feColorMatrix
         id="feColorMatrix3216"
         values="-0.15 -0.3 -0.05 0 1 -0.15 -0.3 -0.05 0 1 -0.15 -0.3 -0.05 0 1 0 0 0 1 0"
         result="result3" />
    </filter>
    <inkscape:perspective
       id="perspective3282"
       inkscape:persp3d-origin="0.5 : 0.33333333 : 1"
       inkscape:vp_z="1 : 0.5 : 1"
       inkscape:vp_y="0 : 1000 : 0"
       inkscape:vp_x="0 : 0.5 : 1"
       sodipodi:type="inkscape:persp3d" />
    <inkscape:perspective
       id="perspective3282-6"
       inkscape:persp3d-origin="0.5 : 0.33333333 : 1"
       inkscape:vp_z="1 : 0.5 : 1"
       inkscape:vp_y="0 : 1000 : 0"
       inkscape:vp_x="0 : 0.5 : 1"
       sodipodi:type="inkscape:persp3d" />
    <inkscape:perspective
       id="perspective3313"
       inkscape:persp3d-origin="0.5 : 0.33333333 : 1"
       inkscape:vp_z="1 : 0.5 : 1"
       inkscape:vp_y="0 : 1000 : 0"
       inkscape:vp_x="0 : 0.5 : 1"
       sodipodi:type="inkscape:persp3d" />
    <inkscape:perspective
       id="perspective3313-5"
       inkscape:persp3d-origin="0.5 : 0.33333333 : 1"
       inkscape:vp_z="1 : 0.5 : 1"
       inkscape:vp_y="0 : 1000 : 0"
       inkscape:vp_x="0 : 0.5 : 1"
       sodipodi:type="inkscape:persp3d" />
    <inkscape:perspective
       id="perspective3313-55"
       inkscape:persp3d-origin="0.5 : 0.33333333 : 1"
       inkscape:vp_z="1 : 0.5 : 1"
       inkscape:vp_y="0 : 1000 : 0"
       inkscape:vp_x="0 : 0.5 : 1"
       sodipodi:type="inkscape:persp3d" />
    <inkscape:perspective
       id="perspective3313-8"
       inkscape:persp3d-origin="0.5 : 0.33333333 : 1"
       inkscape:vp_z="1 : 0.5 : 1"
       inkscape:vp_y="0 : 1000 : 0"
       inkscape:vp_x="0 : 0.5 : 1"
       sodipodi:type="inkscape:persp3d" />
    <inkscape:perspective
       id="perspective3313-52"
       inkscape:persp3d-origin="0.5 : 0.33333333 : 1"
       inkscape:vp_z="1 : 0.5 : 1"
       inkscape:vp_y="0 : 1000 : 0"
       inkscape:vp_x="0 : 0.5 : 1"
       sodipodi:type="inkscape:persp3d" />
    <inkscape:perspective
       id="perspective3313-2"
       inkscape:persp3d-origin="0.5 : 0.33333333 : 1"
       inkscape:vp_z="1 : 0.5 : 1"
       inkscape:vp_y="0 : 1000 : 0"
       inkscape:vp_x="0 : 0.5 : 1"
       sodipodi:type="inkscape:persp3d" />
    <inkscape:perspective
       id="perspective3313-0"
       inkscape:persp3d-origin="0.5 : 0.33333333 : 1"
       inkscape:vp_z="1 : 0.5 : 1"
       inkscape:vp_y="0 : 1000 : 0"
       inkscape:vp_x="0 : 0.5 : 1"
       sodipodi:type="inkscape:persp3d" />
    <inkscape:perspective
       id="perspective3389"
       inkscape:persp3d-origin="0.5 : 0.33333333 : 1"
       inkscape:vp_z="1 : 0.5 : 1"
       inkscape:vp_y="0 : 1000 : 0"
       inkscape:vp_x="0 : 0.5 : 1"
       sodipodi:type="inkscape:persp3d" />
    <inkscape:perspective
       id="perspective3389-3"
       inkscape:persp3d-origin="0.5 : 0.33333333 : 1"
       inkscape:vp_z="1 : 0.5 : 1"
       inkscape:vp_y="0 : 1000 : 0"
       inkscape:vp_x="0 : 0.5 : 1"
       sodipodi:type="inkscape:persp3d" />
    <inkscape:perspective
       id="perspective3389-4"
       inkscape:persp3d-origin="0.5 : 0.33333333 : 1"
       inkscape:vp_z="1 : 0.5 : 1"
       inkscape:vp_y="0 : 1000 : 0"
       inkscape:vp_x="0 : 0.5 : 1"
       sodipodi:type="inkscape:persp3d" />
    <inkscape:perspective
       id="perspective3389-7"
       inkscape:persp3d-origin="0.5 : 0.33333333 : 1"
       inkscape:vp_z="1 : 0.5 : 1"
       inkscape:vp_y="0 : 1000 : 0"
       inkscape:vp_x="0 : 0.5 : 1"
       sodipodi:type="inkscape:persp3d" />
    <inkscape:perspective
       id="perspective3438"
       inkscape:persp3d-origin="0.5 : 0.33333333 : 1"
       inkscape:vp_z="1 : 0.5 : 1"
       inkscape:vp_y="0 : 1000 : 0"
       inkscape:vp_x="0 : 0.5 : 1"
       sodipodi:type="inkscape:persp3d" />
    <inkscape:perspective
       id="perspective3460"
       inkscape:persp3d-origin="0.5 : 0.33333333 : 1"
       inkscape:vp_z="1 : 0.5 : 1"
       inkscape:vp_y="0 : 1000 : 0"
       inkscape:vp_x="0 : 0.5 : 1"
       sodipodi:type="inkscape:persp3d" />
    <inkscape:perspective
       id="perspective3482"
       inkscape:persp3d-origin="0.5 : 0.33333333 : 1"
       inkscape:vp_z="1 : 0.5 : 1"
       inkscape:vp_y="0 : 1000 : 0"
       inkscape:vp_x="0 : 0.5 : 1"
       sodipodi:type="inkscape:persp3d" />
    <inkscape:perspective
       id="perspective3482-7"
       inkscape:persp3d-origin="0.5 : 0.33333333 : 1"
       inkscape:vp_z="1 : 0.5 : 1"
       inkscape:vp_y="0 : 1000 : 0"
       inkscape:vp_x="0 : 0.5 : 1"
       sodipodi:type="inkscape:persp3d" />
    <linearGradient
       inkscape:collect="always"
       xlink:href="#linearGradient3204"
       id="linearGradient3540"
       gradientUnits="userSpaceOnUse"
       gradientTransform="matrix(0.957716,0,0,0.957716,3.97435,-7.73467)"
       x1="10.50732"
       y1="20.26685"
       x2="58.368561"
       y2="68.12809" />
    <linearGradient
       inkscape:collect="always"
       xlink:href="#linearGradient3204"
       id="linearGradient3542"
       gradientUnits="userSpaceOnUse"
       gradientTransform="matrix(-0.957716,0,0,-0.957716,252.734,204.926)"
       x1="-18.128475"
       y1="-8.3689461"
       x2="85.765076"
       y2="95.524605" />
    <linearGradient
       inkscape:collect="always"
       xlink:href="#linearGradient3229"
       id="linearGradient3544"
       gradientUnits="userSpaceOnUse"
       gradientTransform="matrix(1.30113,0,0,0.935464,-35.9787,-6.25895)"
       x1="32.544334"
       y1="-99.715096"
       x2="214.4944"
       y2="148.62189" />
    <linearGradient
       inkscape:collect="always"
       xlink:href="#linearGradient3229"
       id="linearGradient3546"
       gradientUnits="userSpaceOnUse"
       gradientTransform="matrix(1.47514,0,0,0.952671,-70.4856,-6.82373)"
       x1="52.097725"
       y1="-99.900627"
       x2="212.58461"
       y2="148.60075" />
    <linearGradient
       inkscape:collect="always"
       xlink:href="#linearGradient3241"
       id="linearGradient3548"
       gradientUnits="userSpaceOnUse"
       gradientTransform="matrix(0.964958,0,0,0.957716,4.12591,-9.89164)"
       x1="52.442154"
       y1="-23.972216"
       x2="161.03645"
       y2="165.54085" />
  </defs>
  <metadata
     id="metadata7">
    <rdf:RDF>
      <cc:Work
         rdf:about="">
        <dc:format>image/svg+xml</dc:format>
        <dc:type
           rdf:resource="http://purl.org/dc/dcmitype/StillImage" />
        <dc:title></dc:title>
      </cc:Work>
    </rdf:RDF>
  </metadata>
  <g
     id="layer1"
     inkscape:groupmode="layer"
     inkscape:label="Layer 1"
     transform="translate(-54.438686,-214.81295)">
    <g
       transform="matrix(2.9106742,0,0,2.9742735,-2.1233541,159.76379)"
       id="g2912"
       style="display:inline">
      <g
         id="layer5"
         inkscape:label="Shadow"
         style="display:inline" />
      <g
         id="layer4"
         inkscape:label="Tela"
         style="display:inline">
        <rect
           style="fill:#000000;fill-opacity:1;stroke:none;display:inline"
           id="rect2383"
           width="217.13475"
           height="159.97511"
           x="19.432625"
           y="18.50844"
           rx="10.669169"
           ry="10.669169" />
        <path
           style="opacity:0.9;fill:url(#linearGradient3540);fill-opacity:1;stroke:none;display:inline"
           d="m 31.303768,19.946422 190.516512,0 c 5.75133,0 10.38146,4.630131 10.38146,10.38146 L 31.303768,175.60759 c -5.751329,0 -10.381461,-4.63012 -10.381461,-10.38146 l 0,-134.898248 c 0,-5.751329 4.630132,-10.38146 10.381461,-10.38146 z"
           id="rect3202"
           sodipodi:nodetypes="ccccccc" />
        <path
           style="opacity:0.6;fill:url(#linearGradient3542);fill-opacity:1;stroke:none;display:inline"
           d="m 225.40446,177.24539 -190.516508,0 c -5.751328,0 -10.38146,-4.63012 -10.38146,-10.38146 L 225.40446,21.584228 c 5.75133,0 10.38146,4.630131 10.38146,10.381461 l 0,134.898241 c 0,5.75134 -4.63013,10.38146 -10.38146,10.38146 z"
           id="rect3214"
           sodipodi:nodetypes="ccccccc" />
        <rect
           ry="9.1022549"
           rx="9.5456343"
           y="28.701693"
           x="30.865479"
           height="136.48055"
           width="194.26904"
           id="rect3200"
           style="fill:#000000;fill-opacity:1;stroke:none;display:inline" />
        <path
           style="fill:url(#linearGradient3544);fill-opacity:1;stroke:none;display:inline"
           d="m 165.06016,29.330808 36.68785,0 -98.07951,133.309422 -42.213478,0 L 165.06016,29.330808 z"
           id="rect3224"
           sodipodi:nodetypes="ccccc" />
        <path
           sodipodi:nodetypes="ccccc"
           id="path3227"
           d="m 205.48211,29.420681 9.48841,0 -93.18578,135.761569 -13.40379,0 97.10116,-135.761569 z"
           style="fill:url(#linearGradient3546);fill-opacity:1;stroke:none;display:inline" />
        <rect
           style="fill:url(#linearGradient3548);fill-opacity:1;stroke:none;display:inline"
           id="rect3239"
           width="191.61333"
           height="133.60458"
           x="31.833843"
           y="29.420687"
           rx="9.4151421"
           ry="8.910449" />
      </g>
    </g>
    <g
       inkscape:label="Layer 1"
       id="layer1-9"
       transform="matrix(6.4361585,0,0,4.7262878,-1864.5184,-2417.7887)">
      <g
         id="g4956"
         transform="matrix(1,0,0,1.0234972,288.47929,550.81355)"
         style="filter:url(#filter3212)">
        <rect
           transform="scale(1,-1)"
           y="-100.049"
           x="13.798344"
           height="90"
           width="90"
           id="rect9591"
           style="fill:#95574d;fill-opacity:1;fill-rule:nonzero;stroke:none" />
        <g
           transform="matrix(1,0,0,0.929591,42.4264,32.9162)"
           id="g3070">
          <path
             id="path9605"
             d="m -3.6280342,8.2175245 0,-0.729768 -25.0000158,0 0,-0.729769 4.999994,0 0,-10.193949 -4.999994,0 0,-0.729767 14.999998,0 0,-10.2167545 -14.999998,0 0,-0.729768 25.0000158,0 0,-9.486985 0.9999898,0 0,9.486985 28.9999894,0 0,-9.486985 1.000005,0 0,9.486985 29.000006,0 0,-9.486985 0.99999,0 0,9.486985 4.000004,0 0,0.729768 -14.374983,0 0,10.2167545 14.374983,0 0,0.729767 -24.375002,0 0,10.193949 24.375002,0 0,0.729769 -4.000004,0 0,0.729768 -0.99999,0 0,-0.729768 -29.000006,0 0,0.729768 -1.000005,0 0,-0.729768 -28.9999894,0 0,0.729768 -0.9999898,0 z m -19.0000168,-1.459537 28.6249996,0 0,-10.193949 -28.6249996,0 0,10.193949 z m 29.6250044,0 29.0000056,0 0,-10.193949 -29.0000056,0 0,10.193949 z m -19.6250014,-10.923716 28.625,0 0,-10.2167545 -28.625,0 0,10.2167545 z m 29.625005,0 29.000005,0 0,-10.2167545 -29.000005,0 0,10.2167545 z"
             style="fill:#56595d;fill-opacity:1;fill-rule:nonzero;stroke:none" />
          <path
             style="fill:#56595d;fill-opacity:1;fill-rule:nonzero;stroke:none"
             d="m -3.6280342,40.217524 0,-0.729768 -25.0000158,0 0,-0.729768 4.999994,0 0,-10.193949 -4.999994,0 0,-0.729768 14.999998,0 0,-10.216754 -14.999998,0 0,-0.729768 25.0000158,0 0,-9.486985 0.9999898,0 0,9.486985 28.9999894,0 0,-9.486985 1.000005,0 0,9.486985 29.000006,0 0,-9.486985 0.99999,0 0,9.486985 4.000004,0 0,0.729768 -14.374983,0 0,10.216754 14.374983,0 0,0.729768 -24.375002,0 0,10.193949 24.375002,0 0,0.729768 -4.000004,0 0,0.729768 -0.99999,0 0,-0.729768 -29.000006,0 0,0.729768 -1.000005,0 0,-0.729768 -28.9999894,0 0,0.729768 -0.9999898,0 z m -19.0000168,-1.459536 28.6249996,0 0,-10.193949 -28.6249996,0 0,10.193949 z m 29.6250044,0 29.0000056,0 0,-10.193949 -29.0000056,0 0,10.193949 z m -19.6250014,-10.923717 28.625,0 0,-10.216754 -28.625,0 0,10.216754 z m 29.625005,0 29.000005,0 0,-10.216754 -29.000005,0 0,10.216754 z"
             id="path3066" />
          <path
             id="path3068"
             d="m -3.6280342,72.217524 0,-0.729768 -25.0000158,0 0,-0.729768 4.999994,0 0,-10.193949 -4.999994,0 0,-0.729768 14.999998,0 0,-10.216754 -14.999998,0 0,-0.729768 25.0000158,0 0,-9.486985 0.9999898,0 0,9.486985 28.9999894,0 0,-9.486985 1.000005,0 0,9.486985 29.000006,0 0,-9.486985 0.99999,0 0,9.486985 4.000004,0 0,0.729768 -14.374983,0 0,10.216754 14.374983,0 0,0.729768 -24.375002,0 0,10.193949 24.375002,0 0,0.729768 -4.000004,0 0,0.729768 -0.99999,0 0,-0.729768 -29.000006,0 0,0.729768 -1.000005,0 0,-0.729768 -28.9999894,0 0,0.729768 -0.9999898,0 z m -19.0000168,-1.459536 28.6249996,0 0,-10.193949 -28.6249996,0 0,10.193949 z m 29.6250044,0 29.0000056,0 0,-10.193949 -29.0000056,0 0,10.193949 z m -19.6250014,-10.923717 28.625,0 0,-10.216754 -28.625,0 0,10.216754 z m 29.625005,0 29.000005,0 0,-10.216754 -29.000005,0 0,10.216754 z"
             style="fill:#56595d;fill-opacity:1;fill-rule:nonzero;stroke:none" />
        </g>
        <path
           id="path3075"
           d="m 29.849961,24.360649 0,-4.75 14.25,0 14.25,0 0,4.75 0,4.750001 -14.25,0 -14.25,0 0,-4.750001 z"
           style="fill:#914d45;fill-opacity:1;fill-rule:nonzero;stroke:none;stroke-width:1;marker:none;visibility:visible;display:inline;overflow:visible" />
        <path
           id="path3077"
           d="m 29.849961,83.860649 0,-4.75 14.25,0 14.25,0 0,4.75 0,4.75 -14.25,0 -14.25,0 0,-4.75 z"
           style="fill:#914d45;fill-opacity:1;fill-rule:nonzero;stroke:none;stroke-width:1;marker:none;visibility:visible;display:inline;overflow:visible" />
        <path
           id="path3079"
           d="m 49.349961,64.235649 0,-4.625 14.5,0 14.5,0 0,4.625 0,4.625 -14.5,0 -14.5,0 0,-4.625 z"
           style="fill:#914d45;fill-opacity:1;fill-rule:nonzero;stroke:none;stroke-width:1;marker:none;visibility:visible;display:inline;overflow:visible" />
        <path
           id="path3081"
           d="m 39.849961,44.23565 0,-4.375 14.34584,0 14.34584,0 0.150742,0.5625 c 0.08291,0.309375 0.152288,2.278125 0.154165,4.374999 l 0.0034,3.8125 -14.5,0 -14.5,0 0,-4.374999 z"
           style="fill:#9c6f6e;fill-opacity:1;fill-rule:nonzero;stroke:none;stroke-width:1;marker:none;visibility:visible;display:inline;overflow:visible" />
        <path
           id="path3083"
           d="m 49.349961,93.985649 0,-4.625 14.5,0 14.5,0 0,4.625 0,4.625 -14.5,0 -14.5,0 0,-4.625 z"
           style="fill:#9c6f6e;fill-opacity:1;fill-rule:nonzero;stroke:none;stroke-width:1;marker:none;visibility:visible;display:inline;overflow:visible" />
        <path
           id="path3085"
           d="m 19.849961,34.48565 0,-4.625 14.25,0 14.25,0 0,4.625 0,4.625 -14.25,0 -14.25,0 0,-4.625 z"
           style="fill:#8e5857;fill-opacity:1;fill-rule:nonzero;stroke:none;stroke-width:1;marker:none;visibility:visible;display:inline;overflow:visible" />
        <path
           id="path3087"
           d="m 19.849961,64.235649 0,-4.625 14.25,0 14.25,0 0,4.625 0,4.625 -14.25,0 -14.25,0 0,-4.625 z"
           style="fill:#8e5857;fill-opacity:1;fill-rule:nonzero;stroke:none;stroke-width:1;marker:none;visibility:visible;display:inline;overflow:visible" />
        <path
           id="path3089"
           d="m 59.516633,58.693977 c -0.09167,-0.09166 -0.166672,-2.22916 -0.166672,-4.749995 l 0,-4.583333 14.5,0 14.5,0 0,4.75 0,4.75 -14.333328,0 c -7.88334,0 -14.40834,-0.075 -14.500005,-0.166667 l 5e-6,-5e-6 z"
           style="fill:#8e5857;fill-opacity:1;fill-rule:nonzero;stroke:none;stroke-width:1;marker:none;visibility:visible;display:inline;overflow:visible" />
        <path
           id="path3091"
           d="m 99.849961,73.985649 0,-4.375 1.874999,0 1.875,0 0,4.375 0,4.375 -1.875,0 -1.874999,0 0,-4.375 z"
           style="fill:#8e5857;fill-opacity:1;fill-rule:nonzero;stroke:none;stroke-width:1;marker:none;visibility:visible;display:inline;overflow:visible" />
        <path
           id="path3093"
           d="m 13.849961,73.985649 0,-4.375 12.34584,0 12.34584,0 0.150742,0.5625 c 0.08291,0.309375 0.152288,2.278125 0.154165,4.375 l 0.0034,3.8125 -12.5,0 -12.5,0 0,-4.375 z"
           style="fill:#8e5857;fill-opacity:1;fill-rule:nonzero;stroke:none;stroke-width:1;marker:none;visibility:visible;display:inline;overflow:visible" />
        <path
           id="path3095"
           d="m 13.849961,44.23565 0,-4.375 12.34584,0 12.34584,0 0.150742,0.5625 c 0.08291,0.309375 0.152288,2.278125 0.154165,4.374999 l 0.0034,3.8125 -12.5,0 -12.5,0 0,-4.374999 z"
           style="fill:#7a4f4c;fill-opacity:1;fill-rule:nonzero;stroke:none;stroke-width:1;marker:none;visibility:visible;display:inline;overflow:visible" />
        <path
           id="path3097"
           d="m 99.849961,44.23565 0,-4.375 1.874999,0 1.875,0 0,4.375 0,4.374999 -1.875,0 -1.874999,0 0,-4.374999 z"
           style="fill:#7a4f4c;fill-opacity:1;fill-rule:nonzero;stroke:none;stroke-width:1;marker:none;visibility:visible;display:inline;overflow:visible" />
        <path
           id="path3099"
           d="m 79.349961,93.985649 0,-4.625 12.125,0 12.124999,0 0,4.625 0,4.625 -12.124999,0 -12.125,0 0,-4.625 z"
           style="fill:#7a4f4c;fill-opacity:1;fill-rule:nonzero;stroke:none;stroke-width:1;marker:none;visibility:visible;display:inline;overflow:visible" />
        <path
           id="path3101"
           d="m 13.849961,93.985649 0,-4.625 2.5,0 2.5,0 0,4.625 0,4.625 -2.5,0 -2.5,0 0,-4.625 z"
           style="fill:#7a4f4c;fill-opacity:1;fill-rule:nonzero;stroke:none;stroke-width:1;marker:none;visibility:visible;display:inline;overflow:visible" />
        <path
           id="path3103"
           d="m 39.849961,14.485649 0,-4.375 14.5,0 14.5,0 0,4.375 0,4.375 -14.5,0 -14.5,0 0,-4.375 z"
           style="fill:#91544a;fill-opacity:1;fill-rule:nonzero;stroke:none;stroke-width:1;marker:none;visibility:visible;display:inline;overflow:visible" />
        <path
           id="path3105"
           d="m 39.849961,73.985649 0,-4.375 14.34584,0 14.34584,0 0.150742,0.5625 c 0.08291,0.309375 0.152288,2.278125 0.154165,4.375 l 0.0034,3.8125 -14.5,0 -14.5,0 0,-4.375 z"
           style="fill:#91544a;fill-opacity:1;fill-rule:nonzero;stroke:none;stroke-width:1;marker:none;visibility:visible;display:inline;overflow:visible" />
        <path
           id="path3107"
           d="m 79.349961,64.235649 0,-4.625 12.125,0 12.124999,0 0,4.625 0,4.625 -12.124999,0 -12.125,0 0,-4.625 z"
           style="fill:#91544a;fill-opacity:1;fill-rule:nonzero;stroke:none;stroke-width:1;marker:none;visibility:visible;display:inline;overflow:visible" />
        <path
           id="path3109"
           d="m 13.849961,64.235649 0,-4.625 2.5,0 2.5,0 0,4.625 0,4.625 -2.5,0 -2.5,0 0,-4.625 z"
           style="fill:#91544a;fill-opacity:1;fill-rule:nonzero;stroke:none;stroke-width:1;marker:none;visibility:visible;display:inline;overflow:visible" />
      </g>
    </g>
    <path
       style="fill:#800000"
       d="m 108.30119,273.4716 0,-20.46995 84.28571,0 84.28572,0 0,20.46995 0,20.46994 -84.28572,0 -84.28571,0 0,-20.46994 z"
       id="path3272" />
    <path
       style="fill:#800000"
       d="m 284.72976,273.17917 0,-20.46994 84.28571,0 84.28572,0 0,20.46994 0,20.46995 -84.28572,0 -84.28571,0 0,-20.46995 z"
       id="path3272-4" />
    <path
       style="fill:#800000"
       d="m 462.72976,274.34889 0,-20.46995 51.42857,0 51.42856,0 0,20.46995 0,20.46994 -51.42856,0 -51.42857,0 0,-20.46994 z"
       id="path3272-3" />
    <path
       style="fill:#800000"
       d="m 110.15833,323.18432 0,-20.46994 84.28571,0 84.28572,0 0,20.46994 0,20.46995 -84.28572,0 -84.28571,0 0,-20.46995 z"
       id="path3272-1" />
    <path
       style="fill:#800000"
       d="m 110.15833,372.01977 0,-20.46995 84.28571,0 84.28572,0 0,20.46995 0,20.46994 -84.28572,0 -84.28571,0 0,-20.46994 z"
       id="path3272-41" />
    <path
       style="fill:#800000"
       d="m 109.30118,422.60977 0,-20.46994 84.28571,0 84.28572,0 0,20.46994 0,20.46995 -84.28572,0 -84.28571,0 0,-20.46995 z"
       id="path3272-49" />
    <path
       style="fill:#800000"
       d="m 109.30118,473.4922 0,-20.46995 84.28571,0 84.28572,0 0,20.46995 0,20.46994 -84.28572,0 -84.28571,0 0,-20.46994 z"
       id="path3272-38" />
    <path
       style="fill:#800000"
       d="m 108.72976,524.08221 0,-20.46994 84.28571,0 84.28572,0 0,20.46994 0,20.46995 -84.28572,0 -84.28571,0 0,-20.46995 z"
       id="path3272-2" />
    <path
       style="fill:#800000"
       d="m 107.87262,577.30407 0,-20.46994 84.28571,0 84.28572,0 0,20.46994 0,20.46995 -84.28572,0 -84.28571,0 0,-20.46995 z"
       id="path3272-7" />
    <path
       style="fill:#800000"
       d="m 106.72976,624.9698 0,-20.46994 84.28571,0 84.28572,0 0,20.46994 0,20.47002 -84.28572,0 -84.28571,0 0,-20.47002 z"
       id="path3272-34" />
    <path
       style="fill:#800000"
       d="m 511.01548,322.01461 0,-20.46995 51.42856,0 51.42857,0 0,20.46995 0,20.46994 -51.42857,0 -51.42856,0 0,-20.46994 z"
       id="path3272-3-3" />
    <path
       style="fill:#800000"
       d="m 529.5869,374.89705 0,-20.46995 51.42857,0 51.42857,0 0,20.46995 0,20.46994 -51.42857,0 -51.42857,0 0,-20.46994 z"
       id="path3272-3-4"
       inkscape:transform-center-y="-84.804059" />
    <path
       style="fill:#800000"
       d="m 511.87262,425.48705 0,-20.46994 51.42856,0 51.42857,0 0,20.46994 0,20.46995 -51.42857,0 -51.42856,0 0,-20.46995 z"
       id="path3272-3-39"
       inkscape:transform-center-y="-43.864164" />
    <path
       style="fill:#800000"
       d="m 461.87262,474.3225 0,-20.46995 51.42857,0 51.42856,0 0,20.46995 0,20.46994 -51.42856,0 -51.42857,0 0,-20.46994 z"
       id="path3272-3-2" />
    <path
       style="fill:#800000"
       d="m 286.44405,475.24677 0,-20.46994 84.28571,0 84.28572,0 0,20.46994 0,20.46995 -84.28572,0 -84.28571,0 0,-20.46995 z"
       id="path3272-2-5" />
    <path
       style="fill:#800000"
       d="m 451.87261,523.49736 0,-20.46995 74.28571,0 74.28572,0 0,20.46995 0,20.46994 -74.28572,0 -74.28571,0 0,-20.46994 z"
       id="path3272-7-6" />
    <path
       style="fill:#800000"
       d="m 452.72976,574.96464 0,-20.46994 84.28571,0 84.28572,0 0,20.46994 0,20.46995 -84.28572,0 -84.28571,0 0,-20.46995 z"
       id="path3272-7-6-5" />
    <path
       style="fill:#800000"
       d="m 449.5869,628.1865 0,-20.46995 92.85714,0 92.85715,0 0,20.46995 0,20.46992 -92.85715,0 -92.85714,0 0,-20.46992 z"
       id="path3272-7-6-1" />
  </g>
</svg>
